<svg id="svg" version="1.1" xmlns="http://www.w3.org/2000/svg" xmlns:xlink="http://www.w3.org/1999/xlink" width="400" height="300.89285714285717" viewBox="0, 0, 400,300.89285714285717"><g id="svgg"><path id="path0" d="M310.480 40.065 L 292.851 57.557 292.926 135.400 L 293.002 213.243 310.685 213.321 L 328.367 213.398 328.367 117.986 C 328.367 65.509,328.309 22.573,328.239 22.573 C 328.168 22.573,320.177 30.445,310.480 40.065 M262.064 96.496 L 244.693 113.834 244.770 163.388 L 244.846 212.942 262.227 213.020 L 279.609 213.097 279.609 146.127 C 279.609 109.294,279.570 79.157,279.522 79.157 C 279.474 79.157,271.618 86.960,262.064 96.496 M32.430 254.249 C 33.631 254.306,35.594 254.306,36.795 254.249 C 37.995 254.192,37.013 254.145,34.612 254.145 C 32.212 254.145,31.230 254.192,32.430 254.249 M216.328 254.250 C 217.694 254.305,219.929 254.305,221.294 254.250 C 222.660 254.194,221.543 254.148,218.811 254.148 C 216.080 254.148,214.962 254.194,216.328 254.250 M27.529 270.880 C 27.529 279.240,27.567 282.660,27.615 278.480 C 27.662 274.300,27.662 267.460,27.615 263.281 C 27.567 259.101,27.529 262.521,27.529 270.880 M218.342 260.736 C 218.260 260.950,218.230 263.151,218.276 265.626 L 218.360 270.128 221.144 270.146 L 223.929 270.164 221.205 270.059 L 218.482 269.954 218.571 265.150 C 218.659 260.411,218.636 259.968,218.342 260.736 M34.377 270.938 C 34.341 276.515,34.413 281.141,34.537 281.218 C 34.661 281.295,34.728 278.357,34.686 274.689 C 34.541 262.033,34.441 260.831,34.377 270.938 M233.961 264.861 C 233.961 266.102,234.014 266.610,234.079 265.989 C 234.144 265.369,234.144 264.353,234.079 263.732 C 234.014 263.111,233.961 263.619,233.961 264.861 M49.792 270.880 C 49.792 275.102,49.835 276.828,49.886 274.718 C 49.938 272.607,49.938 269.153,49.886 267.043 C 49.835 264.932,49.792 266.659,49.792 270.880 M120.220 271.181 C 120.220 275.237,120.263 276.896,120.315 274.868 C 120.367 272.840,120.367 269.522,120.315 267.494 C 120.263 265.467,120.220 267.126,120.220 271.181 M135.568 271.181 C 135.568 274.740,135.612 276.196,135.665 274.417 C 135.718 272.637,135.718 269.725,135.665 267.946 C 135.612 266.166,135.568 267.622,135.568 271.181 M253.198 265.670 C 253.488 265.746,253.962 265.746,254.251 265.670 C 254.541 265.595,254.304 265.533,253.725 265.533 C 253.145 265.533,252.908 265.595,253.198 265.670 M293.830 265.971 C 294.120 266.047,294.594 266.047,294.883 265.971 C 295.173 265.895,294.936 265.834,294.357 265.834 C 293.777 265.834,293.540 265.895,293.830 265.971 M366.968 265.985 C 367.754 266.047,369.041 266.047,369.827 265.985 C 370.613 265.923,369.970 265.872,368.397 265.872 C 366.825 265.872,366.181 265.923,366.968 265.985 M162.227 268.021 C 162.789 268.600,163.316 269.074,163.399 269.074 C 163.482 269.074,163.090 268.600,162.528 268.021 C 161.967 267.442,161.439 266.968,161.357 266.968 C 161.274 266.968,161.666 267.442,162.227 268.021 M144.236 281.623 C 144.199 289.434,144.270 295.889,144.394 295.966 C 144.599 296.093,144.596 285.659,144.386 272.536 C 144.341 269.722,144.273 273.811,144.236 281.623 M60.179 268.999 L 59.142 270.128 60.271 269.091 C 61.321 268.125,61.538 267.871,61.308 267.871 C 61.258 267.871,60.750 268.378,60.179 268.999 M256.804 268.774 C 256.804 269.353,256.866 269.590,256.942 269.300 C 257.018 269.011,257.018 268.536,256.942 268.247 C 256.866 267.957,256.804 268.194,256.804 268.774 M264.992 268.849 L 264.108 269.827 265.087 268.943 C 265.625 268.457,266.065 268.017,266.065 267.965 C 266.065 267.732,265.816 267.937,264.992 268.849 M298.104 278.706 C 298.104 284.748,298.145 287.220,298.194 284.199 C 298.243 281.178,298.243 276.234,298.194 273.213 C 298.145 270.192,298.104 272.664,298.104 278.706 M67.494 270.787 C 67.784 270.863,68.258 270.863,68.548 270.787 C 68.837 270.711,68.600 270.649,68.021 270.649 C 67.442 270.649,67.205 270.711,67.494 270.787 M315.801 270.787 C 316.091 270.863,316.565 270.863,316.855 270.787 C 317.144 270.711,316.907 270.649,316.328 270.649 C 315.749 270.649,315.512 270.711,315.801 270.787 M379.314 272.686 C 379.314 273.431,379.373 273.736,379.445 273.363 C 379.517 272.991,379.517 272.381,379.445 272.009 C 379.373 271.637,379.314 271.941,379.314 272.686 M172.530 272.686 C 172.530 273.266,172.592 273.503,172.668 273.213 C 172.744 272.923,172.744 272.449,172.668 272.160 C 172.592 271.870,172.530 272.107,172.530 272.686 M283.029 276.749 C 283.030 278.405,283.081 279.044,283.142 278.169 C 283.203 277.294,283.202 275.940,283.140 275.159 C 283.079 274.378,283.029 275.094,283.029 276.749 M305.905 276.900 C 305.905 278.638,305.955 279.349,306.016 278.480 C 306.077 277.611,306.077 276.189,306.016 275.320 C 305.955 274.451,305.905 275.162,305.905 276.900 M57.590 276.749 C 57.591 278.074,57.644 278.578,57.708 277.870 C 57.771 277.162,57.770 276.079,57.706 275.462 C 57.641 274.846,57.589 275.425,57.590 276.749 M66.290 274.713 C 67.077 274.775,68.363 274.775,69.150 274.713 C 69.936 274.651,69.293 274.601,67.720 274.601 C 66.147 274.601,65.504 274.651,66.290 274.713 M269.481 276.900 C 269.481 278.307,269.532 278.883,269.596 278.179 C 269.659 277.476,269.659 276.324,269.596 275.621 C 269.532 274.917,269.481 275.493,269.481 276.900 M314.597 274.713 C 315.384 274.775,316.670 274.775,317.457 274.713 C 318.243 274.651,317.600 274.601,316.027 274.601 C 314.454 274.601,313.811 274.651,314.597 274.713 M332.983 276.900 C 332.983 278.141,333.036 278.649,333.101 278.029 C 333.166 277.408,333.166 276.392,333.101 275.771 C 333.036 275.150,332.983 275.658,332.983 276.900 M158.107 276.749 C 158.108 277.743,158.165 278.113,158.232 277.572 C 158.299 277.031,158.297 276.218,158.229 275.766 C 158.160 275.314,158.105 275.756,158.107 276.749 M218.342 275.783 C 218.260 275.997,218.234 278.333,218.285 280.975 L 218.376 285.779 218.443 280.748 L 218.510 275.717 221.595 275.620 L 224.680 275.522 221.586 275.459 C 219.289 275.411,218.453 275.495,218.342 275.783 M248.005 281.777 C 247.923 284.211,247.961 286.096,248.090 285.967 C 248.219 285.837,248.286 283.846,248.240 281.541 L 248.154 277.351 248.005 281.777 M67.344 278.629 C 68.710 278.685,70.944 278.685,72.310 278.629 C 73.676 278.573,72.558 278.527,69.827 278.527 C 67.096 278.527,65.978 278.573,67.344 278.629 M315.350 278.629 C 316.716 278.685,318.950 278.685,320.316 278.629 C 321.682 278.573,320.564 278.527,317.833 278.527 C 315.102 278.527,313.984 278.573,315.350 278.629 M343.491 281.923 C 343.781 281.999,344.255 281.999,344.545 281.923 C 344.834 281.847,344.597 281.785,344.018 281.785 C 343.439 281.785,343.202 281.847,343.491 281.923 M179.913 282.831 C 180.288 282.903,180.829 282.901,181.117 282.825 C 181.405 282.750,181.099 282.691,180.436 282.694 C 179.774 282.698,179.539 282.759,179.913 282.831 M386.381 282.831 C 386.753 282.903,387.363 282.903,387.735 282.831 C 388.108 282.759,387.803 282.700,387.058 282.700 C 386.313 282.700,386.008 282.759,386.381 282.831 M265.162 284.876 C 265.723 285.455,266.251 285.929,266.333 285.929 C 266.416 285.929,266.024 285.455,265.463 284.876 C 264.901 284.296,264.374 283.822,264.291 283.822 C 264.208 283.822,264.600 284.296,265.162 284.876 M32.265 287.658 C 33.705 287.713,36.143 287.713,37.682 287.659 C 39.222 287.604,38.044 287.559,35.064 287.559 C 32.084 287.558,30.825 287.603,32.265 287.658 M214.372 287.642 C 214.661 287.717,215.135 287.717,215.425 287.642 C 215.715 287.566,215.478 287.504,214.898 287.504 C 214.319 287.504,214.082 287.566,214.372 287.642 M244.169 287.642 C 244.458 287.717,244.932 287.717,245.222 287.642 C 245.512 287.566,245.275 287.504,244.695 287.504 C 244.116 287.504,243.879 287.566,244.169 287.642 M366.968 287.653 C 367.588 287.718,368.604 287.718,369.225 287.653 C 369.846 287.588,369.338 287.535,368.096 287.535 C 366.855 287.535,366.347 287.588,366.968 287.653 M123.627 287.948 C 123.999 288.019,124.609 288.019,124.981 287.948 C 125.354 287.876,125.049 287.817,124.304 287.817 C 123.559 287.817,123.254 287.876,123.627 287.948 " stroke="none" fill="#54b9d6" fill-rule="evenodd"></path><path id="path1" d="M0.000 150.489 L 0.000 300.978 200.000 300.978 L 400.000 300.978 400.000 150.489 L 400.000 0.000 200.000 0.000 L 0.000 0.000 0.000 150.489 M230.061 38.299 C 221.034 47.280,213.533 54.628,213.393 54.628 C 213.254 54.628,205.752 47.280,196.723 38.299 L 180.307 21.971 213.391 21.971 L 246.474 21.971 230.061 38.299 M328.593 117.758 L 328.518 213.544 310.685 213.622 L 292.852 213.699 292.852 135.416 L 292.852 57.133 310.534 39.561 C 320.260 29.897,328.318 21.986,328.443 21.981 C 328.567 21.976,328.635 65.075,328.593 117.758 M128.292 52.143 L 133.634 57.426 133.634 129.613 L 133.634 201.800 127.843 207.597 L 122.052 213.394 110.311 213.394 L 98.570 213.394 98.570 117.985 L 98.570 22.576 110.760 34.718 C 117.464 41.396,125.354 49.237,128.292 52.143 M280.136 145.899 L 280.060 213.544 262.754 213.627 C 253.236 213.673,245.143 213.637,244.771 213.546 L 244.093 213.382 244.093 163.502 L 244.093 113.621 261.775 95.938 C 271.500 86.212,279.626 78.254,279.834 78.254 C 280.136 78.254,280.197 91.789,280.136 145.899 M231.753 165.989 L 231.753 213.394 213.845 213.394 L 195.937 213.394 195.937 183.673 L 195.937 153.952 213.618 136.269 C 223.343 126.543,231.402 118.585,231.527 118.585 C 231.651 118.585,231.753 139.917,231.753 165.989 M182.995 190.218 L 182.995 213.394 159.629 213.394 L 136.264 213.394 159.554 190.233 C 172.364 177.495,182.878 167.066,182.919 167.058 C 182.961 167.050,182.995 177.472,182.995 190.218 M43.190 254.510 C 43.521 254.688,44.427 255.140,45.202 255.514 C 49.420 257.551,50.344 260.523,50.177 271.516 C 50.028 281.305,49.668 282.771,46.794 285.294 C 44.392 287.403,43.674 287.559,35.854 287.673 L 28.819 287.776 27.953 286.947 L 27.088 286.118 27.088 271.042 C 27.088 254.726,27.061 255.009,28.700 254.309 C 29.602 253.925,42.434 254.102,43.190 254.510 M128.980 254.561 C 129.305 254.736,130.181 255.173,130.926 255.531 C 135.127 257.552,135.587 259.066,135.589 270.890 C 135.591 281.789,135.569 281.929,133.419 284.635 C 129.091 290.083,115.731 288.702,113.920 282.619 C 113.797 282.205,113.543 281.676,113.357 281.444 C 113.120 281.150,113.017 278.041,113.017 271.210 L 113.017 261.400 113.860 259.683 C 114.644 258.087,117.330 255.229,118.046 255.229 C 118.210 255.229,118.771 255.034,119.292 254.795 C 121.041 253.995,127.639 253.836,128.980 254.561 M227.690 254.508 C 228.021 254.690,228.949 255.164,229.751 255.561 C 230.554 255.958,231.538 256.689,231.938 257.186 C 232.338 257.682,232.793 258.246,232.949 258.439 C 233.106 258.632,233.326 259.174,233.438 259.643 C 233.550 260.113,233.793 260.687,233.977 260.919 C 234.471 261.542,234.413 267.862,233.904 268.953 C 232.780 271.361,232.490 271.881,231.919 272.509 C 229.869 274.768,227.095 275.696,222.395 275.696 L 218.850 275.696 218.755 280.992 L 218.661 286.289 217.758 287.010 C 216.406 288.091,213.226 288.062,211.912 286.956 L 210.986 286.177 210.996 270.929 C 211.006 254.554,210.978 254.875,212.501 254.234 C 213.288 253.903,227.042 254.151,227.690 254.508 M297.417 256.091 C 299.539 258.466,297.894 261.851,294.618 261.851 C 291.182 261.851,289.353 258.974,291.228 256.516 C 292.715 254.566,295.862 254.350,297.417 256.091 M364.213 256.636 C 365.669 257.351,365.679 257.384,365.684 261.625 L 365.688 265.463 368.495 265.463 C 372.035 265.463,373.319 266.537,372.769 269.041 C 372.376 270.831,371.683 271.181,368.536 271.181 L 365.688 271.181 365.688 275.786 C 365.688 280.912,365.759 281.114,367.550 281.114 C 372.121 281.114,374.272 284.243,371.636 287.058 C 371.054 287.679,370.733 287.735,367.753 287.735 C 361.939 287.735,359.383 286.171,358.506 282.077 C 358.043 279.919,358.034 258.855,358.494 257.844 C 359.184 256.331,362.266 255.679,364.213 256.636 M34.913 271.061 L 34.913 281.174 37.547 281.068 C 42.167 280.884,42.442 280.305,42.431 270.790 C 42.420 261.485,42.157 260.948,37.605 260.948 L 34.913 260.948 34.913 271.061 M121.565 261.883 L 120.692 262.818 120.692 271.086 L 120.692 279.354 121.572 280.234 C 122.354 281.016,122.658 281.114,124.304 281.114 C 125.950 281.114,126.254 281.016,127.036 280.234 L 127.916 279.354 127.916 271.031 L 127.916 262.708 127.036 261.828 C 125.703 260.495,122.835 260.524,121.565 261.883 M218.811 265.312 L 218.811 269.676 221.531 269.676 C 225.582 269.676,226.637 268.718,226.637 265.037 C 226.637 263.273,226.543 262.969,225.702 262.012 L 224.768 260.948 221.790 260.948 L 218.811 260.948 218.811 265.312 M71.934 265.996 C 74.399 266.861,76.256 268.458,77.612 270.880 C 78.360 272.218,78.396 275.982,77.671 277.133 C 76.773 278.559,76.081 278.706,70.253 278.706 L 65.000 278.706 65.192 279.533 C 65.734 281.867,69.735 282.909,72.541 281.447 C 77.116 279.062,80.174 283.950,75.824 286.696 C 70.216 290.236,60.960 287.963,58.317 282.396 C 57.417 280.498,57.301 273.235,58.144 271.482 C 60.524 266.534,66.589 264.121,71.934 265.996 M90.285 266.100 C 90.529 266.461,91.046 267.583,91.436 268.593 C 91.825 269.603,92.262 270.700,92.406 271.031 C 92.660 271.611,93.234 273.060,94.404 276.071 C 94.933 277.434,95.408 277.931,95.411 277.126 C 95.413 276.688,96.736 273.367,97.022 273.081 C 97.129 272.974,97.216 272.699,97.216 272.469 C 97.216 272.105,97.478 271.434,98.718 268.623 C 98.864 268.292,99.077 267.693,99.190 267.292 C 99.741 265.345,101.633 264.789,103.991 265.882 C 106.532 267.060,107.285 268.316,106.418 269.931 C 105.966 270.773,104.643 273.620,103.529 276.147 C 102.190 279.187,99.458 285.126,98.775 286.483 C 97.142 289.730,92.570 289.180,90.915 285.537 C 90.373 284.346,89.550 282.558,89.085 281.565 C 88.621 280.572,87.945 279.082,87.585 278.254 C 86.927 276.745,85.853 274.419,84.237 271.007 C 82.732 267.828,83.261 266.845,87.284 265.350 C 88.173 265.019,89.837 265.435,90.285 266.100 M160.120 265.986 C 161.354 266.532,163.629 268.774,164.475 270.278 C 164.982 271.179,165.084 272.047,165.179 276.253 L 165.290 281.174 164.351 283.081 C 161.741 288.383,156.215 289.916,152.464 286.379 L 151.392 285.368 151.387 290.690 C 151.385 293.617,151.283 296.151,151.162 296.320 C 149.874 298.113,145.642 298.120,144.399 296.330 C 143.856 295.549,144.140 267.085,144.695 266.621 C 146.149 265.407,147.914 265.183,149.559 266.004 C 150.422 266.435,150.745 266.773,151.297 267.826 C 151.327 267.884,151.666 267.634,152.049 267.272 C 154.082 265.349,157.462 264.810,160.120 265.986 M185.704 265.968 C 188.835 266.988,189.802 268.783,188.423 271.014 C 187.385 272.693,186.688 272.859,184.445 271.961 C 181.697 270.862,179.082 270.997,179.082 272.238 C 179.082 272.717,180.552 273.582,181.400 273.602 C 187.603 273.748,191.538 279.920,188.595 284.888 C 185.154 290.697,169.507 288.503,171.990 282.560 C 172.935 280.298,173.830 280.115,176.845 281.565 C 179.365 282.777,181.207 282.938,182.365 282.048 C 183.649 281.061,182.342 279.864,179.517 279.440 C 178.777 279.329,178.098 279.118,178.007 278.972 C 177.917 278.826,177.612 278.706,177.329 278.706 C 175.088 278.706,172.184 275.382,172.166 272.796 C 172.126 267.094,178.811 263.722,185.704 265.968 M256.067 265.956 C 258.552 268.441,257.118 272.084,253.653 272.084 C 249.879 272.084,248.322 274.934,248.307 281.866 C 248.302 284.184,248.198 286.223,248.077 286.398 C 246.999 287.950,243.493 288.267,241.789 286.967 L 240.783 286.200 240.792 276.809 C 240.803 266.483,240.753 266.763,242.711 265.945 C 244.951 265.009,248.006 266.026,248.006 267.708 C 248.006 268.353,248.179 268.295,249.132 267.332 C 251.236 265.206,254.641 264.530,256.067 265.956 M275.997 265.818 C 281.558 268.115,283.281 270.647,283.335 276.599 C 283.431 286.980,273.188 292.072,265.514 285.459 C 260.815 281.410,260.625 272.871,265.137 268.473 C 266.403 267.238,267.172 266.754,269.375 265.804 C 270.767 265.203,274.529 265.211,275.997 265.818 M319.488 265.764 C 319.654 265.884,320.196 266.079,320.692 266.197 C 325.407 267.322,328.326 274.886,325.228 277.953 C 324.671 278.505,324.147 278.563,318.942 278.649 L 313.262 278.743 313.452 279.552 C 313.961 281.729,319.745 283.191,320.840 281.419 C 321.385 280.538,324.441 280.644,325.238 281.572 C 328.640 285.531,321.252 289.674,313.920 287.919 C 308.252 286.563,305.485 282.864,305.496 276.659 C 305.506 271.117,307.553 268.163,313.017 265.804 C 314.350 265.229,318.713 265.201,319.488 265.764 M347.630 265.997 C 350.735 267.090,351.807 268.572,350.997 270.653 C 350.127 272.890,348.360 273.600,346.316 272.534 C 342.840 270.721,340.557 272.394,340.557 276.754 L 340.557 279.976 341.599 280.846 C 343.106 282.104,344.576 282.014,347.400 280.492 C 349.867 279.163,352.654 283.222,350.933 285.639 C 347.301 290.740,335.961 288.621,333.508 282.382 C 331.520 277.326,333.848 266.968,336.973 266.968 C 337.206 266.968,337.397 266.843,337.397 266.691 C 337.397 266.538,337.837 266.319,338.375 266.204 C 338.913 266.089,339.492 265.884,339.662 265.748 C 340.482 265.091,345.503 265.248,347.630 265.997 M391.708 265.800 C 391.865 265.946,392.285 266.065,392.641 266.065 C 393.915 266.065,395.786 267.757,395.786 268.909 C 395.786 272.093,392.363 273.569,389.932 271.433 C 389.495 271.049,386.624 271.134,386.215 271.543 C 385.468 272.290,385.811 272.951,387.133 273.309 C 390.493 274.218,391.807 274.645,392.792 275.148 C 398.419 278.023,397.161 286.247,390.844 287.892 C 383.969 289.683,376.557 286.069,378.856 282.047 C 379.683 280.601,383.145 280.053,383.145 281.367 C 383.145 281.738,386.055 282.619,387.249 282.609 C 390.713 282.580,390.026 280.052,386.391 279.452 C 385.682 279.335,384.966 279.138,384.801 279.014 C 384.635 278.890,384.116 278.697,383.647 278.585 C 377.907 277.212,377.517 267.552,383.145 266.167 C 383.559 266.065,384.037 265.874,384.206 265.741 C 384.877 265.219,391.133 265.268,391.708 265.800 M296.580 266.050 C 298.393 266.827,298.316 266.159,298.204 280.220 C 298.096 293.718,298.125 293.516,295.971 295.670 C 292.686 298.955,286.832 298.230,286.832 294.538 C 286.832 293.101,288.083 291.351,289.116 291.342 C 290.615 291.330,290.584 291.561,290.745 279.093 C 290.835 272.109,291.016 267.226,291.196 266.938 C 292.068 265.544,294.474 265.147,296.580 266.050 M65.995 271.715 C 65.626 272.001,65.236 272.680,65.128 273.224 L 64.931 274.214 67.906 274.127 C 70.646 274.047,70.887 273.992,70.969 273.421 C 71.239 271.532,67.769 270.341,65.995 271.715 M314.138 271.709 C 312.367 273.666,312.810 274.191,316.228 274.191 C 319.140 274.191,319.177 274.173,319.048 272.837 C 318.901 271.317,315.252 270.478,314.138 271.709 M152.966 272.674 C 150.047 275.109,151.494 281.716,154.947 281.716 C 157.706 281.716,158.939 275.030,156.583 272.846 C 155.585 271.919,153.963 271.843,152.966 272.674 M270.970 272.761 C 267.474 276.600,270.951 284.163,274.621 280.702 L 275.696 279.688 275.696 276.950 C 275.696 272.789,273.068 270.459,270.970 272.761 " stroke="none" fill="#fafafa" fill-rule="evenodd"></path><path id="path2" d="M29.345 254.543 C 27.617 254.964,27.690 254.241,27.690 271.030 L 27.690 286.436 28.668 286.963 C 30.055 287.709,41.526 287.522,43.682 286.718 C 48.854 284.789,49.757 282.240,49.612 269.977 C 49.485 259.240,48.982 257.794,44.595 255.556 C 42.552 254.514,32.269 253.831,29.345 254.543 M121.350 254.645 C 117.733 255.288,115.585 256.888,114.098 260.045 L 113.318 261.701 113.318 271.031 L 113.318 280.361 114.098 282.017 C 117.555 289.357,130.296 289.899,134.188 282.871 C 135.408 280.667,136.019 266.900,135.114 262.003 C 134.092 256.472,128.345 253.400,121.350 254.645 M212.561 254.639 C 211.349 255.125,211.287 255.927,211.291 270.825 C 211.296 288.296,211.153 287.719,215.387 287.368 C 218.128 287.141,218.182 287.020,218.278 280.847 L 218.360 275.546 222.573 275.371 C 231.025 275.021,234.056 272.021,233.799 264.259 C 233.606 258.390,231.266 255.497,226.026 254.647 C 223.660 254.263,213.511 254.257,212.561 254.639 M293.269 255.424 C 292.155 255.665,290.991 257.162,290.956 258.398 C 290.885 260.895,294.532 262.532,296.579 260.922 C 299.670 258.491,297.298 254.552,293.269 255.424 M360.474 256.860 C 359.841 257.092,359.284 257.327,359.236 257.384 C 357.604 259.309,358.206 282.249,359.954 284.702 C 361.757 287.235,370.004 288.523,371.663 286.531 C 373.462 284.372,371.828 281.716,368.702 281.716 C 365.593 281.716,365.688 281.897,365.688 275.986 L 365.688 270.880 368.397 270.880 C 371.677 270.880,372.310 270.474,372.310 268.369 C 372.310 266.381,371.780 266.065,368.449 266.065 L 365.688 266.065 365.688 262.467 C 365.688 257.153,364.164 255.513,360.474 256.860 M40.632 260.873 C 42.651 261.882,42.768 262.490,42.673 271.442 L 42.588 279.377 41.398 280.406 L 40.207 281.435 37.335 281.350 L 34.462 281.264 34.378 271.482 C 34.332 266.102,34.368 261.396,34.459 261.023 C 34.679 260.119,38.916 260.016,40.632 260.873 M126.272 260.824 C 128.331 261.801,128.367 261.975,128.367 271.031 C 128.367 280.108,128.299 280.432,126.208 281.305 C 124.224 282.134,121.879 281.577,120.829 280.026 C 119.988 278.784,119.923 263.786,120.752 262.272 C 121.707 260.528,124.246 259.862,126.272 260.824 M224.645 260.764 C 226.300 261.455,226.993 262.741,227.008 265.149 C 227.033 269.048,225.466 270.364,220.974 270.215 L 218.360 270.128 218.276 265.626 C 218.230 263.151,218.260 260.950,218.342 260.736 C 218.551 260.190,223.323 260.211,224.645 260.764 M64.454 266.347 C 62.643 267.019,62.377 267.193,60.550 268.907 C 56.686 272.533,56.779 281.589,60.715 285.045 C 64.480 288.351,71.801 288.955,75.691 286.280 C 79.326 283.780,77.210 279.723,73.230 281.560 C 69.679 283.198,66.220 282.707,65.123 280.407 C 64.218 278.509,64.335 278.465,70.554 278.354 L 76.135 278.254 76.967 277.422 C 78.861 275.527,77.851 270.633,75.061 268.183 C 72.492 265.927,67.786 265.112,64.454 266.347 M85.707 266.384 C 83.621 267.486,83.395 268.497,84.669 271.031 C 84.918 271.527,85.829 273.491,86.693 275.395 C 87.556 277.299,88.636 279.669,89.092 280.662 C 92.488 288.062,92.469 288.039,94.950 288.032 C 97.786 288.023,97.570 288.302,101.607 279.458 C 103.195 275.982,104.887 272.282,105.369 271.236 C 106.678 268.395,106.582 267.775,104.665 266.676 C 100.956 264.548,100.569 264.869,97.511 272.611 C 95.276 278.268,95.005 278.688,94.493 277.276 C 94.329 276.821,94.066 276.178,93.909 275.847 C 93.753 275.515,92.860 273.281,91.925 270.880 C 90.991 268.480,90.089 266.347,89.922 266.140 C 89.460 265.568,86.981 265.712,85.707 266.384 M154.251 266.327 C 153.589 266.629,152.593 267.304,152.037 267.825 C 150.824 268.964,150.790 268.970,150.790 268.043 C 150.790 266.881,149.485 266.065,147.630 266.065 C 146.493 266.065,145.835 266.238,145.263 266.689 L 144.470 267.312 144.470 281.412 C 144.470 298.007,144.337 297.366,147.780 297.366 C 150.997 297.366,151.392 296.559,151.392 289.977 L 151.392 284.655 152.607 285.869 C 159.041 292.304,167.486 283.106,164.769 272.622 C 163.381 267.267,158.538 264.368,154.251 266.327 M177.301 266.239 C 170.759 268.621,171.129 276.486,177.878 278.531 C 182.254 279.857,182.783 280.078,183.066 280.699 C 184.147 283.069,180.140 283.605,176.164 281.623 C 173.930 280.509,173.096 280.741,172.316 282.692 C 170.373 287.548,182.974 290.042,187.389 285.675 C 191.776 281.337,188.729 275.264,181.558 274.052 C 180.267 273.834,178.480 272.869,178.480 272.390 C 178.480 270.902,181.500 270.429,184.271 271.482 C 187.234 272.609,189.291 271.116,188.595 268.344 C 188.094 266.348,180.756 264.981,177.301 266.239 M251.078 266.266 C 250.533 266.535,249.551 267.363,248.896 268.107 L 247.705 269.460 247.705 268.501 C 247.705 265.955,243.161 265.039,241.469 267.243 C 240.693 268.253,240.955 285.447,241.761 286.374 C 242.915 287.702,245.994 287.780,247.351 286.516 C 247.959 285.950,248.007 285.620,248.013 281.930 C 248.027 274.645,249.318 272.245,253.486 271.754 C 255.919 271.467,256.734 270.702,256.734 268.707 C 256.734 266.020,253.985 264.833,251.078 266.266 M269.155 266.338 C 256.746 270.920,262.763 291.308,275.416 287.551 C 280.605 286.010,282.904 282.696,282.910 276.749 C 282.918 268.659,276.344 263.683,269.155 266.338 M313.046 266.200 C 304.344 269.027,303.182 282.557,311.303 286.516 C 317.402 289.489,327.016 287.183,325.659 283.072 C 324.929 280.860,323.627 280.482,321.042 281.730 C 317.425 283.478,313.017 282.169,313.017 279.347 L 313.017 278.405 317.908 278.403 C 325.170 278.401,326.035 277.969,326.035 274.348 C 326.035 268.376,319.318 264.163,313.046 266.200 M339.353 266.263 C 335.199 267.527,333.481 270.187,333.255 275.706 C 332.960 282.929,334.963 286.368,340.165 287.570 C 347.277 289.214,353.814 285.274,350.114 281.574 C 349.196 280.655,348.222 280.651,345.827 281.554 C 342.159 282.937,340.105 281.324,340.105 277.059 C 340.105 272.092,342.098 270.649,346.699 272.283 C 349.039 273.114,350.941 271.828,350.941 269.415 C 350.941 266.637,344.174 264.797,339.353 266.263 M383.898 266.257 C 380.823 267.533,379.551 269.392,379.540 272.626 C 379.527 276.310,380.863 277.506,386.981 279.290 C 390.188 280.225,391.005 281.862,388.653 282.638 C 387.150 283.134,384.792 282.744,382.959 281.695 C 381.068 280.613,380.606 280.598,379.688 281.589 C 374.957 286.694,388.877 290.649,393.994 285.654 C 396.671 283.040,396.748 279.043,394.167 276.664 C 392.917 275.512,392.143 275.182,387.292 273.727 C 385.263 273.119,384.756 272.311,385.849 271.426 C 386.756 270.691,389.027 270.716,390.971 271.482 C 393.506 272.482,394.921 271.835,395.364 269.477 C 395.886 266.695,388.107 264.510,383.898 266.257 M292.400 266.412 C 291.042 267.155,291.046 267.119,291.046 279.084 C 291.046 291.032,290.981 291.648,289.721 291.648 C 287.124 291.648,286.311 295.712,288.666 296.929 C 291.621 298.458,295.824 296.427,297.418 292.701 C 297.822 291.757,298.197 269.124,297.833 267.673 C 297.492 266.315,294.042 265.514,292.400 266.412 M69.662 271.005 C 70.791 271.477,71.332 272.255,71.332 273.408 C 71.332 274.531,70.470 274.828,67.492 274.730 L 64.861 274.643 64.761 273.766 C 64.493 271.416,67.112 269.940,69.662 271.005 M317.651 270.868 C 318.832 271.317,319.639 272.295,319.639 273.278 C 319.639 274.545,318.883 274.831,315.799 274.730 L 313.168 274.643 313.075 273.678 C 312.859 271.447,315.273 269.964,317.651 270.868 M156.781 272.558 C 160.069 275.325,157.928 282.707,154.082 281.862 C 151.270 281.244,150.136 275.086,152.415 272.807 C 153.740 271.482,155.391 271.388,156.781 272.558 M274.974 272.807 C 277.110 274.943,276.305 280.869,273.765 281.707 C 270.555 282.767,268.306 278.646,269.649 274.165 C 270.404 271.645,273.119 270.952,274.974 272.807 " stroke="none" fill="#050505" fill-rule="evenodd"></path><path id="path3" d="M325.051 25.508 L 321.896 28.743 325.131 25.589 L 328.366 22.435 328.442 117.989 L 328.519 213.544 328.593 117.908 C 328.635 65.309,328.564 22.272,328.437 22.272 C 328.310 22.272,326.786 23.728,325.051 25.508 M302.180 48.081 L 292.701 57.637 302.257 48.158 C 311.138 39.349,311.949 38.525,311.736 38.525 C 311.694 38.525,307.394 42.825,302.180 48.081 M261.925 96.088 L 244.394 113.621 244.394 163.507 L 244.394 213.394 262.152 213.394 L 279.910 213.394 279.910 145.974 C 279.910 108.894,279.808 78.555,279.683 78.555 C 279.558 78.555,271.567 86.445,261.925 96.088 M279.609 146.127 L 279.609 213.097 262.227 213.020 L 244.846 212.942 244.770 163.388 L 244.693 113.834 262.064 96.496 C 271.618 86.960,279.474 79.157,279.522 79.157 C 279.570 79.157,279.609 109.294,279.609 146.127 M213.468 136.720 L 195.937 154.253 195.937 183.347 C 195.937 199.349,196.019 212.656,196.119 212.917 C 196.283 213.344,198.115 213.394,213.727 213.394 L 231.151 213.394 231.151 166.290 C 231.151 140.384,231.117 119.187,231.075 119.187 C 231.033 119.187,223.110 127.077,213.468 136.720 M123.326 254.243 C 123.864 254.310,124.744 254.310,125.282 254.243 C 125.820 254.177,125.380 254.122,124.304 254.122 C 123.228 254.122,122.788 254.177,123.326 254.243 M131.828 256.227 C 131.828 256.278,132.269 256.719,132.807 257.205 L 133.785 258.089 132.901 257.111 C 132.077 256.199,131.828 255.994,131.828 256.227 M211.125 270.880 C 211.125 279.074,211.164 282.427,211.211 278.330 C 211.258 274.233,211.258 267.528,211.211 263.431 C 211.164 259.334,211.125 262.686,211.125 270.880 M34.749 260.724 C 34.670 260.933,34.640 265.639,34.684 271.183 L 34.763 281.264 37.171 281.282 L 39.579 281.301 37.246 281.195 L 34.913 281.089 34.913 270.882 L 34.913 260.675 36.945 260.569 L 38.977 260.464 36.936 260.405 C 35.528 260.364,34.849 260.464,34.749 260.724 M219.789 260.565 C 220.410 260.630,221.426 260.630,222.047 260.565 C 222.667 260.500,222.160 260.447,220.918 260.447 C 219.676 260.447,219.169 260.500,219.789 260.565 M135.510 263.958 C 135.510 264.537,135.572 264.774,135.648 264.485 C 135.723 264.195,135.723 263.721,135.648 263.431 C 135.572 263.141,135.510 263.378,135.510 263.958 M112.998 271.181 C 112.998 275.403,113.040 277.129,113.092 275.019 C 113.143 272.908,113.143 269.454,113.092 267.344 C 113.040 265.233,112.998 266.960,112.998 271.181 M226.730 265.312 C 226.732 266.305,226.788 266.676,226.855 266.135 C 226.922 265.594,226.920 264.781,226.852 264.329 C 226.783 263.876,226.728 264.319,226.730 265.312 M42.567 270.880 C 42.567 274.771,42.610 276.362,42.663 274.417 C 42.715 272.472,42.715 269.289,42.663 267.344 C 42.610 265.399,42.567 266.990,42.567 270.880 M128.344 271.031 C 128.344 274.507,128.388 275.888,128.441 274.100 C 128.495 272.311,128.495 269.467,128.441 267.779 C 128.387 266.091,128.344 267.555,128.344 271.031 M179.458 265.670 C 179.748 265.746,180.222 265.746,180.512 265.670 C 180.801 265.595,180.564 265.533,179.985 265.533 C 179.406 265.533,179.169 265.595,179.458 265.670 M181.866 265.670 C 182.156 265.746,182.630 265.746,182.919 265.670 C 183.209 265.595,182.972 265.533,182.393 265.533 C 181.813 265.533,181.576 265.595,181.866 265.670 M341.685 265.670 C 341.975 265.746,342.449 265.746,342.739 265.670 C 343.029 265.595,342.792 265.533,342.212 265.533 C 341.633 265.533,341.396 265.595,341.685 265.670 M344.093 265.670 C 344.383 265.746,344.857 265.746,345.147 265.670 C 345.436 265.595,345.199 265.533,344.620 265.533 C 344.041 265.533,343.804 265.595,344.093 265.670 M388.491 265.676 C 388.865 265.748,389.407 265.745,389.695 265.670 C 389.983 265.594,389.676 265.535,389.014 265.539 C 388.352 265.542,388.117 265.604,388.491 265.676 M180.662 271.088 C 180.952 271.164,181.426 271.164,181.716 271.088 C 182.005 271.012,181.768 270.950,181.189 270.950 C 180.609 270.950,180.372 271.012,180.662 271.088 M366.968 271.102 C 367.754 271.164,369.041 271.164,369.827 271.102 C 370.613 271.040,369.970 270.989,368.397 270.989 C 366.825 270.989,366.181 271.040,366.968 271.102 M387.434 271.088 C 387.724 271.164,388.198 271.164,388.488 271.088 C 388.777 271.012,388.540 270.950,387.961 270.950 C 387.381 270.950,387.144 271.012,387.434 271.088 M253.051 271.996 C 253.425 272.068,253.967 272.065,254.255 271.990 C 254.543 271.915,254.236 271.856,253.574 271.859 C 252.912 271.863,252.677 271.924,253.051 271.996 M343.344 271.996 C 343.719 272.068,344.261 272.065,344.548 271.990 C 344.836 271.915,344.530 271.856,343.868 271.859 C 343.205 271.863,342.970 271.924,343.344 271.996 M78.035 274.191 C 78.035 274.936,78.094 275.241,78.166 274.868 C 78.237 274.496,78.237 273.886,78.166 273.514 C 78.094 273.141,78.035 273.446,78.035 274.191 M340.212 276.749 C 340.211 278.239,340.262 278.887,340.325 278.188 C 340.388 277.490,340.389 276.271,340.327 275.479 C 340.265 274.688,340.213 275.260,340.212 276.749 M262.245 276.749 C 262.247 277.743,262.303 278.113,262.370 277.572 C 262.437 277.031,262.436 276.218,262.367 275.766 C 262.298 275.314,262.244 275.756,262.245 276.749 M367.574 281.631 C 368.031 281.700,368.708 281.698,369.079 281.626 C 369.449 281.555,369.074 281.498,368.247 281.501 C 367.419 281.503,367.116 281.561,367.574 281.631 M94.582 288.244 C 94.872 288.319,95.346 288.319,95.636 288.244 C 95.926 288.168,95.688 288.106,95.109 288.106 C 94.530 288.106,94.293 288.168,94.582 288.244 M147.254 297.574 C 147.543 297.650,148.017 297.650,148.307 297.574 C 148.597 297.498,148.360 297.436,147.780 297.436 C 147.201 297.436,146.964 297.498,147.254 297.574 M290.218 297.574 C 290.508 297.650,290.982 297.650,291.272 297.574 C 291.561 297.498,291.324 297.436,290.745 297.436 C 290.166 297.436,289.929 297.498,290.218 297.574 " stroke="none" fill="#94d3e2" fill-rule="evenodd"></path><path id="path4" d="M196.723 38.299 C 205.752 47.280,213.254 54.628,213.393 54.628 C 213.533 54.628,221.034 47.280,230.061 38.299 L 246.474 21.971 213.391 21.971 L 180.307 21.971 196.723 38.299 M324.901 25.357 L 321.595 28.743 325.047 25.433 C 326.945 23.612,328.559 22.088,328.633 22.047 C 328.708 22.005,328.642 21.971,328.487 21.971 C 328.333 21.971,326.719 23.495,324.901 25.357 M98.570 117.985 L 98.570 213.394 110.311 213.394 L 122.052 213.394 127.843 207.597 L 133.634 201.800 133.634 129.613 L 133.634 57.426 128.292 52.143 C 125.354 49.237,117.464 41.396,110.760 34.718 L 98.570 22.576 98.570 117.985 M261.774 95.939 L 244.092 113.623 244.169 163.583 L 244.246 213.544 244.320 163.581 L 244.394 113.617 261.927 96.086 C 271.570 86.444,279.561 78.555,279.685 78.555 C 279.809 78.555,279.910 108.893,279.910 145.972 L 279.910 213.389 262.227 213.470 L 244.545 213.551 262.302 213.548 L 280.060 213.544 280.136 145.899 C 280.197 91.789,280.136 78.254,279.834 78.254 C 279.626 78.254,271.499 86.212,261.774 95.939 M213.543 136.418 L 195.786 154.251 213.469 136.645 L 231.151 119.039 231.151 166.216 C 231.151 197.467,231.253 213.394,231.452 213.394 C 231.652 213.394,231.753 197.392,231.753 165.989 C 231.753 139.917,231.651 118.585,231.527 118.585 C 231.402 118.585,223.309 126.610,213.543 136.418 M159.554 190.233 L 136.264 213.394 159.629 213.394 L 182.995 213.394 182.995 190.218 C 182.995 177.472,182.961 167.050,182.919 167.058 C 182.878 167.066,172.364 177.495,159.554 190.233 M301.655 213.619 C 306.580 213.665,314.639 213.665,319.564 213.619 C 324.488 213.573,320.459 213.535,310.609 213.535 C 300.760 213.535,296.731 213.573,301.655 213.619 M291.625 256.057 L 290.895 256.885 291.798 256.132 C 292.295 255.719,292.758 255.346,292.827 255.305 C 292.896 255.263,292.818 255.229,292.653 255.229 C 292.489 255.229,292.026 255.602,291.625 256.057 M296.188 255.305 C 296.257 255.346,296.719 255.719,297.216 256.132 L 298.119 256.885 297.389 256.057 C 296.988 255.602,296.525 255.229,296.361 255.229 C 296.197 255.229,296.119 255.263,296.188 255.305 M27.156 270.938 C 27.119 279.329,27.190 286.258,27.314 286.334 C 27.519 286.461,27.515 274.996,27.306 261.099 C 27.261 258.119,27.193 262.547,27.156 270.938 M358.301 269.676 C 358.301 276.050,358.341 278.657,358.389 275.470 C 358.438 272.284,358.438 267.069,358.389 263.883 C 358.341 260.696,358.301 263.303,358.301 269.676 M290.468 258.859 C 290.455 259.117,290.655 259.591,290.912 259.912 C 291.373 260.487,291.376 260.487,291.103 259.895 C 290.951 259.564,290.751 259.090,290.659 258.841 C 290.514 258.451,290.488 258.454,290.468 258.859 M36.042 260.867 C 36.746 260.931,37.897 260.931,38.600 260.867 C 39.304 260.804,38.728 260.752,37.321 260.752 C 35.914 260.752,35.339 260.804,36.042 260.867 M123.627 260.860 C 123.999 260.931,124.609 260.931,124.981 260.860 C 125.354 260.788,125.049 260.729,124.304 260.729 C 123.559 260.729,123.254 260.788,123.627 260.860 M218.510 265.312 L 218.510 269.977 221.144 269.916 L 223.777 269.855 221.294 269.754 L 218.811 269.652 218.811 265.312 L 218.811 260.972 221.445 260.871 L 224.078 260.771 221.294 260.709 L 218.510 260.647 218.510 265.312 M234.262 264.861 C 234.262 266.102,234.315 266.610,234.380 265.989 C 234.445 265.369,234.445 264.353,234.380 263.732 C 234.315 263.111,234.262 263.619,234.262 264.861 M50.094 270.880 C 50.094 275.267,50.136 277.062,50.187 274.868 C 50.239 272.675,50.239 269.086,50.187 266.892 C 50.136 264.699,50.094 266.494,50.094 270.880 M128.047 271.031 C 128.047 275.335,128.089 277.054,128.141 274.851 C 128.192 272.647,128.192 269.126,128.140 267.025 C 128.089 264.924,128.047 266.727,128.047 271.031 M120.521 271.031 C 120.521 275.004,120.564 276.587,120.616 274.550 C 120.668 272.513,120.668 269.262,120.616 267.327 C 120.564 265.391,120.521 267.058,120.521 271.031 M253.198 265.369 C 253.488 265.445,253.962 265.445,254.251 265.369 C 254.541 265.294,254.304 265.232,253.725 265.232 C 253.145 265.232,252.908 265.294,253.198 265.369 M146.291 265.748 C 146.009 265.926,146.328 265.963,147.194 265.852 C 147.930 265.758,148.589 265.632,148.658 265.572 C 148.940 265.326,146.693 265.493,146.291 265.748 M183.321 265.570 C 183.390 265.629,183.920 265.764,184.500 265.871 C 185.241 266.007,185.419 265.976,185.102 265.768 C 184.694 265.500,183.022 265.315,183.321 265.570 M243.516 265.572 C 243.585 265.632,244.244 265.758,244.981 265.852 C 245.847 265.963,246.165 265.926,245.884 265.748 C 245.481 265.493,243.234 265.326,243.516 265.572 M269.560 265.709 C 269.476 265.845,269.806 265.897,270.294 265.826 C 270.782 265.754,271.181 265.643,271.181 265.579 C 271.181 265.350,269.709 265.468,269.560 265.709 M293.041 265.701 C 292.960 265.832,293.392 265.890,294.002 265.830 C 295.667 265.665,295.866 265.513,294.450 265.487 C 293.756 265.473,293.122 265.570,293.041 265.701 M339.688 265.709 C 339.604 265.845,339.934 265.897,340.422 265.826 C 340.910 265.754,341.309 265.643,341.309 265.579 C 341.309 265.350,339.837 265.468,339.688 265.709 M345.548 265.571 C 345.617 265.630,346.080 265.770,346.576 265.881 C 347.236 266.029,347.358 266.001,347.028 265.777 C 346.621 265.502,345.246 265.310,345.548 265.571 M366.441 265.654 C 368.545 265.876,371.642 265.897,371.512 265.688 C 371.435 265.564,370.059 265.484,368.455 265.511 C 366.851 265.537,365.944 265.602,366.441 265.654 M384.232 265.709 C 384.149 265.845,384.479 265.897,384.967 265.826 C 385.455 265.754,385.854 265.643,385.854 265.579 C 385.854 265.350,384.381 265.468,384.232 265.709 M390.068 265.579 C 390.068 265.643,390.467 265.754,390.955 265.826 C 391.443 265.897,391.773 265.845,391.689 265.709 C 391.540 265.468,390.068 265.350,390.068 265.579 M372.284 267.125 C 372.445 267.618,372.647 268.292,372.735 268.623 C 372.822 268.954,372.835 268.695,372.763 268.047 C 372.691 267.399,372.489 266.725,372.313 266.549 C 372.087 266.323,372.078 266.492,372.284 267.125 M161.625 267.062 C 161.625 267.114,162.065 267.554,162.603 268.040 L 163.582 268.924 162.698 267.946 C 161.874 267.034,161.625 266.829,161.625 267.062 M240.983 267.168 C 240.337 267.814,240.784 286.138,241.460 286.710 L 242.137 287.284 241.602 286.649 C 241.110 286.065,241.073 285.251,241.150 276.491 C 241.196 271.253,241.223 266.967,241.209 266.967 C 241.195 266.968,241.094 267.058,240.983 267.168 M247.710 267.444 C 247.712 267.761,247.852 268.224,248.020 268.473 C 248.243 268.802,248.271 268.680,248.123 268.021 C 247.876 266.914,247.703 266.674,247.710 267.444 M60.332 268.548 L 59.142 269.827 60.421 268.637 C 61.611 267.531,61.839 267.269,61.611 267.269 C 61.562 267.269,60.986 267.844,60.332 268.548 M226.336 267.549 C 226.336 267.759,225.895 268.344,225.357 268.850 C 224.674 269.492,224.584 269.662,225.056 269.412 C 225.837 268.998,226.809 267.642,226.527 267.360 C 226.422 267.254,226.336 267.340,226.336 267.549 M256.883 268.777 C 256.882 269.574,256.982 270.068,257.104 269.876 C 257.396 269.418,257.401 267.644,257.111 267.467 C 256.986 267.391,256.884 267.981,256.883 268.777 M290.881 278.254 C 290.881 284.379,290.921 286.842,290.970 283.727 C 291.019 280.613,291.019 275.602,290.970 272.591 C 290.921 269.581,290.881 272.129,290.881 278.254 M106.381 268.798 C 106.373 269.471,106.467 269.810,106.602 269.596 C 106.904 269.121,106.916 267.948,106.622 267.768 C 106.497 267.692,106.389 268.155,106.381 268.798 M281.125 269.225 C 281.126 269.391,281.404 269.865,281.742 270.278 C 282.151 270.778,282.253 270.829,282.047 270.429 C 281.539 269.447,281.123 268.903,281.125 269.225 M172.291 271.654 C 172.178 272.411,172.203 273.442,172.348 273.946 C 172.557 274.673,172.614 274.389,172.623 272.570 C 172.638 269.919,172.576 269.751,172.291 271.654 M97.501 271.374 C 97.335 271.810,97.255 272.224,97.323 272.292 C 97.391 272.360,97.591 272.003,97.767 271.498 C 98.159 270.375,97.923 270.265,97.501 271.374 M67.494 271.088 C 67.784 271.164,68.258 271.164,68.548 271.088 C 68.837 271.012,68.600 270.950,68.021 270.950 C 67.442 270.950,67.205 271.012,67.494 271.088 M315.801 271.088 C 316.091 271.164,316.565 271.164,316.855 271.088 C 317.144 271.012,316.907 270.950,316.328 270.950 C 315.749 270.950,315.512 271.012,315.801 271.088 M313.447 272.225 C 313.180 272.634,313.007 273.090,313.064 273.239 C 313.121 273.388,313.388 273.054,313.656 272.496 C 314.231 271.303,314.134 271.177,313.447 272.225 M333.054 272.256 C 332.943 272.697,332.911 273.116,332.982 273.187 C 333.053 273.258,333.201 272.955,333.312 272.514 C 333.423 272.073,333.455 271.654,333.384 271.583 C 333.313 271.512,333.165 271.815,333.054 272.256 M379.014 272.686 C 379.014 273.431,379.072 273.736,379.144 273.363 C 379.216 272.991,379.216 272.381,379.144 272.009 C 379.072 271.637,379.014 271.941,379.014 272.686 M326.110 274.342 C 326.110 275.552,326.209 276.385,326.331 276.194 C 326.453 276.003,326.552 275.169,326.552 274.342 C 326.552 273.514,326.453 272.680,326.331 272.489 C 326.209 272.298,326.110 273.132,326.110 274.342 M70.964 273.510 C 70.804 274.122,70.583 274.176,67.826 274.267 L 64.861 274.366 67.758 274.429 C 70.713 274.493,71.584 274.195,71.263 273.231 C 71.193 273.022,71.059 273.148,70.964 273.510 M181.791 273.876 C 182.039 274.044,182.502 274.184,182.819 274.187 C 183.589 274.193,183.349 274.020,182.242 273.773 C 181.583 273.625,181.461 273.653,181.791 273.876 M319.037 273.860 C 319.037 274.136,318.264 274.207,316.026 274.136 C 314.371 274.083,313.016 274.142,313.017 274.266 C 313.018 274.627,318.975 274.535,319.200 274.171 C 319.309 273.995,319.317 273.769,319.217 273.669 C 319.118 273.570,319.037 273.656,319.037 273.860 M388.563 273.876 C 388.811 274.044,389.274 274.184,389.591 274.187 C 390.361 274.193,390.121 274.020,389.014 273.773 C 388.355 273.625,388.233 273.653,388.563 273.876 M157.562 276.902 C 157.562 278.525,157.662 279.697,157.783 279.506 C 158.075 279.046,158.079 274.267,157.788 274.088 C 157.664 274.011,157.562 275.278,157.562 276.902 M262.039 274.831 C 261.809 275.981,261.842 278.011,262.107 278.949 C 262.214 279.332,262.302 278.350,262.302 276.767 C 262.302 273.542,262.300 273.525,262.039 274.831 M305.600 276.749 C 305.599 278.239,305.650 278.887,305.713 278.188 C 305.776 277.490,305.777 276.271,305.714 275.479 C 305.652 274.688,305.601 275.260,305.600 276.749 M283.319 276.749 C 283.321 277.908,283.375 278.345,283.440 277.721 C 283.505 277.096,283.504 276.148,283.438 275.614 C 283.371 275.080,283.318 275.591,283.319 276.749 M275.792 276.900 C 275.792 277.976,275.847 278.416,275.914 277.878 C 275.981 277.340,275.981 276.460,275.914 275.922 C 275.847 275.384,275.792 275.824,275.792 276.900 M218.633 280.662 C 218.633 283.476,218.678 284.668,218.734 283.310 C 218.789 281.953,218.790 279.650,218.734 278.194 C 218.679 276.737,218.634 277.848,218.633 280.662 M42.101 278.339 C 42.002 278.937,42.046 279.218,42.213 279.051 C 42.365 278.899,42.438 278.455,42.377 278.063 C 42.282 277.461,42.240 277.503,42.101 278.339 M396.163 280.963 C 396.167 281.625,396.228 281.861,396.300 281.486 C 396.372 281.112,396.369 280.570,396.294 280.282 C 396.219 279.995,396.160 280.301,396.163 280.963 M340.984 280.621 C 341.384 281.115,342.513 281.861,342.513 281.632 C 342.513 281.575,342.073 281.206,341.535 280.812 C 340.930 280.369,340.719 280.296,340.984 280.621 M347.526 280.436 C 347.449 280.561,347.834 280.662,348.382 280.662 C 348.930 280.662,349.315 280.561,349.239 280.436 C 349.162 280.312,348.777 280.211,348.382 280.211 C 347.988 280.211,347.603 280.312,347.526 280.436 M365.951 280.888 C 366.261 281.283,366.750 281.401,367.907 281.360 L 369.451 281.306 367.953 281.191 C 367.130 281.127,366.250 280.914,365.997 280.718 C 365.596 280.406,365.590 280.427,365.951 280.888 M49.110 281.700 C 48.934 282.205,48.854 282.619,48.932 282.619 C 49.135 282.619,49.703 281.055,49.554 280.906 C 49.486 280.838,49.286 281.195,49.110 281.700 M123.476 281.329 C 123.932 281.398,124.676 281.398,125.132 281.329 C 125.587 281.260,125.214 281.204,124.304 281.204 C 123.394 281.204,123.021 281.260,123.476 281.329 M68.698 282.232 C 69.153 282.301,69.898 282.301,70.354 282.232 C 70.809 282.163,70.436 282.107,69.526 282.107 C 68.616 282.107,68.243 282.163,68.698 282.232 M316.704 282.232 C 317.160 282.301,317.904 282.301,318.360 282.232 C 318.815 282.163,318.442 282.107,317.532 282.107 C 316.622 282.107,316.249 282.163,316.704 282.232 M77.638 283.605 C 77.784 284.845,77.790 284.851,77.893 283.859 C 77.950 283.300,77.883 282.728,77.742 282.588 C 77.602 282.448,77.555 282.905,77.638 283.605 M378.530 282.518 C 378.256 282.793,378.276 284.657,378.555 284.829 C 378.679 284.906,378.781 284.372,378.781 283.643 C 378.781 282.914,378.770 282.318,378.756 282.318 C 378.742 282.318,378.641 282.408,378.530 282.518 M372.352 283.521 C 372.352 283.770,372.469 284.244,372.611 284.575 C 372.774 284.954,372.870 285.010,372.870 284.725 C 372.870 284.477,372.753 284.003,372.611 283.672 C 372.448 283.293,372.352 283.237,372.352 283.521 M47.089 284.801 L 45.899 286.080 47.178 284.890 C 48.368 283.784,48.596 283.521,48.368 283.521 C 48.319 283.521,47.743 284.097,47.089 284.801 M264.710 284.725 C 265.357 285.388,265.954 285.929,266.036 285.929 C 266.119 285.929,265.658 285.388,265.011 284.725 C 264.365 284.063,263.768 283.521,263.685 283.521 C 263.602 283.521,264.064 284.063,264.710 284.725 M308.202 284.876 C 308.763 285.455,309.290 285.929,309.373 285.929 C 309.456 285.929,309.064 285.455,308.503 284.876 C 307.941 284.296,307.414 283.822,307.331 283.822 C 307.248 283.822,307.640 284.296,308.202 284.876 M394.112 286.005 L 393.228 286.983 394.206 286.099 C 395.118 285.275,395.323 285.026,395.090 285.026 C 395.038 285.026,394.598 285.467,394.112 286.005 M42.287 287.295 C 41.095 287.707,41.094 287.710,42.137 287.538 C 42.716 287.443,43.394 287.249,43.642 287.108 C 44.305 286.730,43.664 286.819,42.287 287.295 M67.946 288.256 C 68.649 288.320,69.801 288.320,70.504 288.256 C 71.208 288.193,70.632 288.141,69.225 288.141 C 67.818 288.141,67.242 288.193,67.946 288.256 M93.604 288.337 C 94.018 288.470,94.695 288.576,95.109 288.572 C 95.785 288.567,95.770 288.543,94.959 288.337 C 93.685 288.013,92.593 288.013,93.604 288.337 M156.588 288.252 C 157.046 288.321,157.723 288.319,158.093 288.248 C 158.463 288.177,158.089 288.120,157.261 288.122 C 156.433 288.124,156.131 288.183,156.588 288.252 M179.308 288.256 C 180.011 288.320,181.163 288.320,181.866 288.256 C 182.570 288.193,181.994 288.141,180.587 288.141 C 179.180 288.141,178.604 288.193,179.308 288.256 M271.708 288.254 C 272.246 288.321,273.126 288.321,273.664 288.254 C 274.202 288.187,273.762 288.132,272.686 288.132 C 271.610 288.132,271.170 288.187,271.708 288.254 M316.253 288.256 C 316.956 288.320,318.108 288.320,318.811 288.256 C 319.515 288.193,318.939 288.141,317.532 288.141 C 316.125 288.141,315.549 288.193,316.253 288.256 M342.137 288.256 C 342.840 288.320,343.992 288.320,344.695 288.256 C 345.399 288.193,344.823 288.141,343.416 288.141 C 342.009 288.141,341.433 288.193,342.137 288.256 M386.080 288.256 C 386.783 288.320,387.935 288.320,388.638 288.256 C 389.342 288.193,388.766 288.141,387.359 288.141 C 385.952 288.141,385.376 288.193,386.080 288.256 M292.400 297.366 L 291.497 297.596 292.307 297.632 C 292.753 297.651,293.201 297.532,293.303 297.366 C 293.406 297.201,293.447 297.081,293.396 297.101 C 293.345 297.121,292.897 297.240,292.400 297.366 " stroke="none" fill="#cbe0e8" fill-rule="evenodd"></path></g></svg>
